<?xml version="1.0" standalone="no"?>
<!DOCTYPE svg PUBLIC "-//W3C//DTD SVG 20010904//EN"
 "http://www.w3.org/TR/2001/REC-SVG-20010904/DTD/svg10.dtd">
<svg version="1.0" xmlns="http://www.w3.org/2000/svg"
 width="213.000000pt" height="52.000000pt" viewBox="0 0 213.000000 52.000000"
 preserveAspectRatio="xMidYMid meet">
<metadata>
Created by potrace 1.15, written by Peter Selinger 2001-2017
</metadata>
<g transform="translate(0.000000,52.000000) scale(0.100000,-0.100000)"
fill="#000000" stroke="none">
<path d="M202 400 c-48 -30 -72 -75 -72 -140 0 -99 60 -160 157 -160 79 0 103
13 103 54 l0 34 -41 -14 c-59 -21 -99 -8 -123 40 -16 33 -17 43 -7 78 10 31
20 43 48 54 31 14 41 14 79 1 l44 -14 0 34 c0 27 -5 35 -26 43 -44 17 -126 12
-162 -10z"/>
<path d="M810 260 l0 -160 35 0 c19 0 35 5 35 10 0 7 6 7 19 0 25 -13 87 -13
112 0 64 35 64 185 0 220 -29 15 -83 12 -109 -6 -22 -15 -22 -15 -22 40 l0 56
-35 0 -35 0 0 -160z"/>
<path d="M1480 360 c0 -23 -4 -30 -20 -30 -15 0 -20 -7 -20 -25 0 -18 5 -25
20 -25 18 0 20 -7 20 -73 0 -92 13 -107 88 -107 49 0 52 2 52 25 0 19 -5 25
-23 25 -35 0 -47 19 -47 77 l0 53 40 0 c36 0 40 3 40 25 0 23 -4 25 -40 25
-38 0 -40 2 -40 30 0 28 -3 30 -35 30 -32 0 -35 -2 -35 -30z"/>
<path d="M1164 306 c-30 -30 -34 -40 -34 -86 0 -46 4 -56 34 -86 31 -31 40
-34 91 -34 51 0 60 3 91 34 30 30 34 40 34 86 0 46 -4 56 -34 86 -31 31 -40
34 -91 34 -51 0 -60 -3 -91 -34z"/>
<path d="M1727 333 c-4 -3 -7 -19 -7 -35 0 -26 2 -28 28 -21 42 12 93 8 103
-8 7 -11 -3 -15 -50 -19 -72 -6 -101 -28 -101 -77 0 -45 30 -73 78 -73 21 0
48 7 60 16 20 14 22 14 22 0 0 -12 10 -16 35 -16 l35 0 0 89 c0 105 -3 117
-41 136 -28 15 -150 21 -162 8z"/>
<path d="M470 326 c0 -2 23 -57 51 -122 47 -110 49 -119 33 -131 -10 -7 -26
-13 -36 -13 -13 0 -18 -8 -18 -25 0 -23 4 -25 43 -25 60 0 76 20 136 178 28
74 51 136 51 138 0 2 -18 4 -39 4 l-39 0 -24 -72 -24 -72 -29 72 c-28 72 -28
72 -67 72 -21 0 -38 -2 -38 -4z"/>
</g>
</svg>
